<mxfile host="app.diagrams.net" agent="Mozilla/5.0 (Windows NT 10.0; Win64; x64) AppleWebKit/537.36 (KHTML, like Gecko) Chrome/137.0.0.0 Safari/537.36 Edg/137.0.0.0" version="27.1.4">
  <diagram name="Page-1" id="iexCky-24MUzZknJcLXE">
    <mxGraphModel dx="778" dy="468" grid="1" gridSize="10" guides="1" tooltips="1" connect="1" arrows="1" fold="1" page="1" pageScale="1" pageWidth="850" pageHeight="1100" math="0" shadow="0">
      <root>
        <mxCell id="0" />
        <mxCell id="1" parent="0" />
        <mxCell id="dJwQjiaHmR0T1Y77OGWm-1" value="&lt;b style=&quot;font-size: 24px;&quot;&gt;ADMIN&lt;/b&gt;" style="rounded=0;whiteSpace=wrap;html=1;" parent="1" vertex="1">
          <mxGeometry x="190" y="160" width="140" height="80" as="geometry" />
        </mxCell>
        <mxCell id="dJwQjiaHmR0T1Y77OGWm-12" style="edgeStyle=orthogonalEdgeStyle;rounded=0;orthogonalLoop=1;jettySize=auto;html=1;exitX=0.953;exitY=0.251;exitDx=0;exitDy=0;entryX=0;entryY=0.25;entryDx=0;entryDy=0;exitPerimeter=0;" parent="1" source="dJwQjiaHmR0T1Y77OGWm-2" target="dJwQjiaHmR0T1Y77OGWm-3" edge="1">
          <mxGeometry relative="1" as="geometry" />
        </mxCell>
        <mxCell id="qNR6gxRiHDTwJwDQJOQF-7" value="" style="edgeStyle=orthogonalEdgeStyle;rounded=0;orthogonalLoop=1;jettySize=auto;html=1;" parent="1" source="dJwQjiaHmR0T1Y77OGWm-2" target="qNR6gxRiHDTwJwDQJOQF-1" edge="1">
          <mxGeometry relative="1" as="geometry">
            <Array as="points">
              <mxPoint x="490" y="290" />
              <mxPoint x="490" y="290" />
            </Array>
          </mxGeometry>
        </mxCell>
        <mxCell id="dJwQjiaHmR0T1Y77OGWm-2" value="BCPDR" style="ellipse;whiteSpace=wrap;html=1;aspect=fixed;fontStyle=1" parent="1" vertex="1">
          <mxGeometry x="430" y="160" width="80" height="80" as="geometry" />
        </mxCell>
        <mxCell id="dJwQjiaHmR0T1Y77OGWm-9" style="edgeStyle=orthogonalEdgeStyle;rounded=0;orthogonalLoop=1;jettySize=auto;html=1;exitX=0;exitY=0.75;exitDx=0;exitDy=0;entryX=1;entryY=1;entryDx=0;entryDy=0;" parent="1" source="dJwQjiaHmR0T1Y77OGWm-3" target="dJwQjiaHmR0T1Y77OGWm-2" edge="1">
          <mxGeometry relative="1" as="geometry">
            <Array as="points">
              <mxPoint x="600" y="228" />
            </Array>
          </mxGeometry>
        </mxCell>
        <mxCell id="dJwQjiaHmR0T1Y77OGWm-3" value="&lt;b&gt;&lt;font style=&quot;font-size: 26px;&quot;&gt;USER&lt;/font&gt;&lt;/b&gt;" style="rounded=0;whiteSpace=wrap;html=1;" parent="1" vertex="1">
          <mxGeometry x="600" y="160" width="140" height="80" as="geometry" />
        </mxCell>
        <mxCell id="dJwQjiaHmR0T1Y77OGWm-4" style="edgeStyle=orthogonalEdgeStyle;rounded=0;orthogonalLoop=1;jettySize=auto;html=1;exitX=1;exitY=0.25;exitDx=0;exitDy=0;entryX=0.033;entryY=0.242;entryDx=0;entryDy=0;entryPerimeter=0;" parent="1" source="dJwQjiaHmR0T1Y77OGWm-1" target="dJwQjiaHmR0T1Y77OGWm-2" edge="1">
          <mxGeometry relative="1" as="geometry" />
        </mxCell>
        <mxCell id="dJwQjiaHmR0T1Y77OGWm-8" style="edgeStyle=orthogonalEdgeStyle;rounded=0;orthogonalLoop=1;jettySize=auto;html=1;exitX=0;exitY=1;exitDx=0;exitDy=0;entryX=1.005;entryY=0.858;entryDx=0;entryDy=0;entryPerimeter=0;" parent="1" source="dJwQjiaHmR0T1Y77OGWm-2" target="dJwQjiaHmR0T1Y77OGWm-1" edge="1">
          <mxGeometry relative="1" as="geometry" />
        </mxCell>
        <mxCell id="dJwQjiaHmR0T1Y77OGWm-13" value="&lt;b&gt;RESPOND&lt;/b&gt;" style="text;html=1;align=center;verticalAlign=middle;whiteSpace=wrap;rounded=0;" parent="1" vertex="1">
          <mxGeometry x="350" y="150" width="60" height="30" as="geometry" />
        </mxCell>
        <mxCell id="dJwQjiaHmR0T1Y77OGWm-14" value="&lt;b&gt;&lt;font style=&quot;font-size: 12px;&quot;&gt;RECEIVE&lt;/font&gt;&lt;/b&gt;" style="text;html=1;align=center;verticalAlign=middle;whiteSpace=wrap;rounded=0;" parent="1" vertex="1">
          <mxGeometry x="520" y="150" width="60" height="30" as="geometry" />
        </mxCell>
        <mxCell id="dJwQjiaHmR0T1Y77OGWm-15" value="&lt;b&gt;RESPOND&lt;/b&gt;" style="text;html=1;align=center;verticalAlign=middle;whiteSpace=wrap;rounded=0;" parent="1" vertex="1">
          <mxGeometry x="520" y="230" width="60" height="30" as="geometry" />
        </mxCell>
        <mxCell id="dJwQjiaHmR0T1Y77OGWm-17" value="&lt;b&gt;&lt;font style=&quot;font-size: 12px;&quot;&gt;RECEIVE&lt;/font&gt;&lt;/b&gt;" style="text;html=1;align=center;verticalAlign=middle;whiteSpace=wrap;rounded=0;" parent="1" vertex="1">
          <mxGeometry x="360" y="230" width="60" height="30" as="geometry" />
        </mxCell>
        <mxCell id="qNR6gxRiHDTwJwDQJOQF-1" value="&lt;b&gt;&lt;font style=&quot;font-size: 23px;&quot;&gt;Vendor&lt;/font&gt;&lt;/b&gt;" style="rounded=0;whiteSpace=wrap;html=1;" parent="1" vertex="1">
          <mxGeometry x="420" y="310" width="140" height="80" as="geometry" />
        </mxCell>
        <mxCell id="qNR6gxRiHDTwJwDQJOQF-9" value="&lt;b&gt;RESPOND&lt;/b&gt;" style="text;html=1;align=center;verticalAlign=middle;whiteSpace=wrap;rounded=0;" parent="1" vertex="1">
          <mxGeometry x="380" y="270" width="60" height="30" as="geometry" />
        </mxCell>
        <mxCell id="qNR6gxRiHDTwJwDQJOQF-10" value="&lt;b&gt;&lt;font style=&quot;font-size: 12px;&quot;&gt;RECEIVE&lt;/font&gt;&lt;/b&gt;" style="text;html=1;align=center;verticalAlign=middle;whiteSpace=wrap;rounded=0;" parent="1" vertex="1">
          <mxGeometry x="500" y="270" width="60" height="30" as="geometry" />
        </mxCell>
        <mxCell id="FpYSkX6u-FkiBxDJHB4Q-1" style="rounded=0;orthogonalLoop=1;jettySize=auto;html=1;exitX=0.25;exitY=0;exitDx=0;exitDy=0;entryX=0.267;entryY=0.983;entryDx=0;entryDy=0;entryPerimeter=0;" edge="1" parent="1" source="qNR6gxRiHDTwJwDQJOQF-1" target="dJwQjiaHmR0T1Y77OGWm-2">
          <mxGeometry relative="1" as="geometry" />
        </mxCell>
      </root>
    </mxGraphModel>
  </diagram>
</mxfile>
